<svg width="40" height="40" viewBox="0 0 40 40" fill="none" xmlns="http://www.w3.org/2000/svg">
<path d="M40 20C40 31.0457 31.0457 40 20 40C8.9543 40 0 31.0457 0 20C0 8.9543 8.9543 0 20 0C31.0457 0 40 8.9543 40 20Z" fill="#D9D9D9"/>
<path d="M25.8133 29.0193C24.6375 30.159 23.3537 29.9791 22.118 29.4392C20.8102 28.8873 19.6104 28.8633 18.2307 29.4392C16.503 30.183 15.5912 29.9671 14.5594 29.0193C8.70447 22.9844 9.56831 13.7941 16.2151 13.4581C17.8348 13.5421 18.9626 14.346 19.9104 14.418C21.3261 14.13 22.6819 13.3022 24.1936 13.4102C26.0052 13.5541 27.373 14.274 28.2728 15.5698C24.5295 17.8133 25.4174 22.7444 28.8487 24.1242C28.1648 25.9238 27.277 27.7115 25.8013 29.0313L25.8133 29.0193ZM19.7904 13.3862C19.6104 10.7107 21.782 8.50307 24.2776 8.28711C24.6255 11.3825 21.4701 13.6861 19.7904 13.3862Z" fill="black"/>
</svg>
