<svg width="21" height="21" viewBox="0 0 21 21" fill="none" xmlns="http://www.w3.org/2000/svg">
<path d="M18.8299 18.8301L17.1181 17.1183M9.84292 17.9742C10.9107 17.9742 11.968 17.7638 12.9546 17.3552C13.9411 16.9466 14.8374 16.3477 15.5925 15.5926C16.3475 14.8376 16.9465 13.9412 17.3551 12.9547C17.7637 11.9682 17.974 10.9108 17.974 9.84304C17.974 8.77524 17.7637 7.7179 17.3551 6.73139C16.9465 5.74488 16.3475 4.84851 15.5925 4.09347C14.8374 3.33842 13.9411 2.73949 12.9546 2.33086C11.968 1.92223 10.9107 1.71191 9.84292 1.71191C7.68641 1.71191 5.61822 2.56858 4.09334 4.09347C2.56846 5.61835 1.71179 7.68653 1.71179 9.84304C1.71179 11.9995 2.56846 14.0677 4.09334 15.5926C5.61822 17.1175 7.68641 17.9742 9.84292 17.9742V17.9742Z" stroke="black" stroke-width="1.28386" stroke-linecap="round" stroke-linejoin="round"/>
</svg>
