<svg width="40" height="40" viewBox="0 0 40 40" fill="none" xmlns="http://www.w3.org/2000/svg">
<circle cx="20" cy="20" r="20" fill="#D9D9D9"/>
<g clip-path="url(#clip0_502_2838)">
<path d="M29.5446 20.2109C29.5446 19.5938 29.487 19.0078 29.3882 18.4375H20.0872V21.9609H25.4126C25.1739 23.1172 24.4743 24.0938 23.4372 24.7578V27.1016H26.6144C28.4746 25.4688 29.5446 23.0625 29.5446 20.2109Z" fill="#4285F4"/>
<path d="M20.0872 29.375C22.754 29.375 24.9846 28.5312 26.6144 27.1016L23.4372 24.7578C22.5482 25.3203 21.4206 25.6641 20.0872 25.6641C17.5108 25.6641 15.3296 24.0156 14.5477 21.7891H11.2717V24.2031C12.8932 27.2656 16.2268 29.375 20.0872 29.375Z" fill="#34A853"/>
<path d="M14.5477 21.7891C14.3419 21.2266 14.2349 20.625 14.2349 20C14.2349 19.375 14.3502 18.7734 14.5477 18.2109V15.7969H11.2718C10.5968 17.0625 10.21 18.4844 10.21 20C10.21 21.5156 10.5968 22.9375 11.2718 24.2031L14.5477 21.7891Z" fill="#FBBC05"/>
<path d="M20.0872 14.3359C21.5441 14.3359 22.8446 14.8125 23.8734 15.7422L26.6884 13.0703C24.9846 11.5547 22.754 10.625 20.0872 10.625C16.2268 10.625 12.8932 12.7344 11.2717 15.7969L14.5477 18.2109C15.3296 15.9844 17.5108 14.3359 20.0872 14.3359Z" fill="#EA4335"/>
</g>
<defs>
<clipPath id="clip0_502_2838">
<rect width="19.7545" height="18.75" fill="white" transform="translate(10 10.625)"/>
</clipPath>
</defs>
</svg>
