<svg width="40" height="40" viewBox="0 0 40 40" fill="none" xmlns="http://www.w3.org/2000/svg">
<circle cx="20" cy="20" r="19.85" fill="white" stroke="#D5D5D5" stroke-width="0.3"/>
<path d="M26.2498 14C25.6581 14.0019 25.0815 14.2097 24.5989 14.5951C24.1163 14.9804 23.7514 15.5244 23.5542 16.1524H10.9559C10.7024 16.1524 10.4592 16.2658 10.28 16.4676C10.1007 16.6694 10 16.9431 10 17.2286C10 17.514 10.1007 17.7877 10.28 17.9895C10.4592 18.1914 10.7024 18.3047 10.9559 18.3047H23.5542C23.7296 18.8631 24.038 19.3565 24.4457 19.7308C24.8534 20.105 25.3447 20.3458 25.8658 20.4268C26.387 20.5077 26.9178 20.4257 27.4003 20.1898C27.8829 19.9538 28.2984 19.5729 28.6015 19.0888C28.9046 18.6048 29.0837 18.0361 29.119 17.4452C29.1543 16.8542 29.0445 16.2638 28.8017 15.7383C28.5589 15.2129 28.1923 14.7728 27.7423 14.4662C27.2922 14.1596 26.7758 13.9983 26.2498 14V14ZM26.2498 18.3047C26.0607 18.3047 25.8759 18.2416 25.7187 18.1234C25.5615 18.0051 25.439 17.837 25.3667 17.6404C25.2943 17.4437 25.2754 17.2274 25.3123 17.0186C25.3491 16.8098 25.4402 16.6181 25.5739 16.4676C25.7075 16.3171 25.8779 16.2146 26.0633 16.1731C26.2487 16.1315 26.4409 16.1528 26.6156 16.2343C26.7902 16.3157 26.9395 16.4537 27.0445 16.6307C27.1496 16.8076 27.2056 17.0157 27.2056 17.2286C27.2056 17.514 27.1049 17.7877 26.9257 17.9895C26.7464 18.1914 26.5033 18.3047 26.2498 18.3047Z" fill="#231F20"/>
<path d="M28.1615 22.6095H21.2984C21.0974 21.9862 20.7309 21.4477 20.2487 21.0671C19.7664 20.6866 19.1917 20.4824 18.6028 20.4824C18.0139 20.4824 17.4392 20.6866 16.957 21.0671C16.4747 21.4477 16.1082 21.9862 15.9073 22.6095H10.9559C10.7024 22.6095 10.4592 22.7229 10.28 22.9247C10.1007 23.1265 10 23.4002 10 23.6856C10 23.9711 10.1007 24.2448 10.28 24.4466C10.4592 24.6484 10.7024 24.7618 10.9559 24.7618H15.9073C16.1082 25.3851 16.4747 25.9236 16.957 26.3042C17.4392 26.6847 18.0139 26.8889 18.6028 26.8889C19.1917 26.8889 19.7664 26.6847 20.2487 26.3042C20.7309 25.9236 21.0974 25.3851 21.2984 24.7618H28.1615C28.415 24.7618 28.6581 24.6484 28.8374 24.4466C29.0167 24.2448 29.1174 23.9711 29.1174 23.6856C29.1174 23.4002 29.0167 23.1265 28.8374 22.9247C28.6581 22.7229 28.415 22.6095 28.1615 22.6095ZM18.6028 24.7618C18.4138 24.7618 18.229 24.6987 18.0718 24.5805C17.9146 24.4622 17.7921 24.2941 17.7197 24.0975C17.6474 23.9008 17.6284 23.6845 17.6653 23.4757C17.7022 23.2669 17.7932 23.0752 17.9269 22.9247C18.0606 22.7742 18.2309 22.6717 18.4163 22.6301C18.6018 22.5886 18.7939 22.6099 18.9686 22.6914C19.1433 22.7728 19.2926 22.9108 19.3976 23.0878C19.5026 23.2647 19.5587 23.4728 19.5587 23.6856C19.5587 23.9711 19.458 24.2448 19.2787 24.4466C19.0995 24.6484 18.8563 24.7618 18.6028 24.7618Z" fill="#231F20"/>
</svg>
